<svg width="233" height="80" xmlns="http://www.w3.org/2000/svg" xmlns:xlink="http://www.w3.org/1999/xlink" xml:space="preserve" overflow="hidden"><g transform="translate(-421 -83)"><path d="M518.394 110.289 514.011 110.289 514.011 109.731 515.536 109.731 515.536 101.026 512.485 101.026 512.485 102.239 511.751 102.239 511.751 99.8319 512.485 99.8319 512.485 100.256 519.919 100.256 519.919 99.8319 520.653 99.8319 520.653 102.239 519.919 102.239 519.919 101.026 516.868 101.026 516.868 109.731 518.394 109.731 518.394 110.289Z" fill="#FFFFFF"/><path d="M532.258 110.289 528.628 110.289 528.628 109.731 529.767 109.731 529.767 105.552 524.051 105.552 524.051 109.731 525.191 109.731 525.191 110.289 521.561 110.289 521.561 109.731 522.7 109.731 522.7 100.833 521.561 100.833 521.561 100.275 525.191 100.275 525.191 100.833 524.051 100.833 524.051 104.878 529.767 104.878 529.767 100.833 528.628 100.833 528.628 100.275 532.258 100.275 532.258 100.833 531.099 100.833 531.099 109.75 532.258 109.75 532.258 110.289Z" fill="#FFFFFF"/><path d="M540.464 110.289 533.532 110.289 533.532 109.73 534.671 109.73 534.671 100.833 533.532 100.833 533.532 100.274 539.614 100.274 539.614 99.8507 540.309 99.8507 540.309 102.258 539.614 102.258 539.614 100.968 536.003 100.968 536.003 104.858 538.88 104.858 538.88 103.722 539.575 103.702 539.575 106.688 538.88 106.707 538.88 105.532 536.003 105.532 536.003 109.615 539.749 109.615 539.749 108.286 540.444 108.286 540.444 110.289 540.464 110.289Z" fill="#FFFFFF"/><path d="M555.524 100.833 554.385 100.833 554.385 106.63C554.385 108.248 553.806 109.307 552.531 110.001 551.894 110.328 551.161 110.521 550.407 110.521 548.206 110.521 546.565 109.057 546.565 107.073L546.565 100.833 545.426 100.833 545.426 100.275 549.056 100.275 549.056 100.833 547.917 100.833 547.917 106.592C547.917 108.44 548.998 109.635 550.697 109.635 552.435 109.635 553.613 108.402 553.613 106.573L553.613 100.833 552.473 100.833 552.473 100.275 555.544 100.275 555.544 100.833 555.524 100.833Z" fill="#FFFFFF"/><path d="M564.928 110.463 564.445 110.463 558.595 102.432 558.595 109.731 559.753 109.731 559.753 110.289 556.664 110.289 556.664 109.731 557.822 109.731 557.822 101.411 557.417 100.833 556.374 100.833 556.374 100.275 558.595 100.275 564.175 107.901 564.175 100.833 563.016 100.833 563.016 100.275 566.086 100.275 566.086 100.833 564.947 100.833 564.947 110.463 564.928 110.463Z" fill="#FFFFFF"/><path d="M570.817 110.289 567.187 110.289 567.187 109.731 568.326 109.731 568.326 100.833 567.187 100.833 567.187 100.275 570.817 100.275 570.817 100.833 569.678 100.833 569.678 109.75 570.817 109.75 570.817 110.289Z" fill="#FFFFFF"/><path d="M576.976 110.559 576.455 110.559 572.613 100.833 571.705 100.833 571.705 100.275 575.49 100.275 575.49 100.833 574.061 100.833 577.015 108.306 579.95 100.833 578.946 100.833 578.946 100.275 581.553 100.275 581.553 100.833 580.799 100.833 576.976 110.559Z" fill="#FFFFFF"/><path d="M589.411 110.289 582.479 110.289 582.479 109.73 583.619 109.73 583.619 100.833 582.479 100.833 582.479 100.274 588.562 100.274 588.562 99.8507 589.257 99.8507 589.257 102.258 588.562 102.258 588.562 100.968 584.951 100.968 584.951 104.858 587.828 104.858 587.828 103.722 588.523 103.702 588.523 106.688 587.828 106.707 587.828 105.532 584.951 105.532 584.951 109.615 588.697 109.615 588.697 108.286 589.392 108.286 589.392 110.289 589.411 110.289Z" fill="#FFFFFF"/><path d="M599.683 110.289 598.39 110.289C597.482 110.289 597.328 110.193 596.826 109.384L594.547 105.783 593.35 105.783 593.35 109.731 594.489 109.731 594.489 110.289 590.859 110.289 590.859 109.731 591.999 109.731 591.999 100.833 590.859 100.833 590.859 100.275 595.107 100.275C596.594 100.275 597.424 100.679 597.888 101.623 598.081 102.027 598.197 102.49 598.197 102.971 598.197 104.454 597.366 105.398 595.918 105.609L598.119 108.98C598.486 109.538 598.737 109.731 599.104 109.731L599.703 109.731 599.703 110.289 599.683 110.289ZM593.35 105.09 594.818 105.09C595.976 105.09 596.787 104.242 596.787 102.99 596.787 101.681 596.073 100.949 594.798 100.949L593.37 100.949 593.37 105.09 593.35 105.09Z" fill="#FFFFFF"/><path d="M601.633 110.443 600.919 110.443 600.919 107.709 601.633 107.709 601.633 108.903C602.56 109.519 602.966 109.673 603.642 109.673 604.858 109.673 605.688 109.037 605.688 108.075 605.688 107.208 605.09 106.572 603.448 105.725 601.518 104.724 600.88 103.953 600.88 102.721 600.88 101.219 602.155 100.082 603.893 100.082 604.646 100.082 605.225 100.217 605.708 100.506L605.708 99.9475 606.403 99.9475 606.403 102.547 605.708 102.547 605.708 101.469C604.935 100.949 604.549 100.795 603.931 100.795 602.888 100.795 602.232 101.411 602.232 102.355 602.232 103.125 602.676 103.568 604.588 104.666 606.499 105.764 607.04 106.438 607.04 107.67 607.04 109.249 605.727 110.463 604.008 110.463 603.043 110.463 602.425 110.27 601.653 109.769L601.653 110.443 601.633 110.443Z" fill="#FFFFFF"/><path d="M612.041 110.289 608.411 110.289 608.411 109.731 609.55 109.731 609.55 100.833 608.411 100.833 608.411 100.275 612.041 100.275 612.041 100.833 610.902 100.833 610.902 109.75 612.041 109.75 612.041 110.289Z" fill="#FFFFFF"/><path d="M619.668 110.289 615.285 110.289 615.285 109.731 616.81 109.731 616.81 101.026 613.76 101.026 613.76 102.239 613.026 102.239 613.026 99.8319 613.76 99.8319 613.76 100.256 621.193 100.256 621.193 99.8319 621.927 99.8319 621.927 102.239 621.193 102.239 621.193 101.026 618.143 101.026 618.143 109.731 619.668 109.731 619.668 110.289Z" fill="#FFFFFF"/><path d="M629.303 110.289 625.673 110.289 625.673 109.731 626.812 109.731 626.812 105.667 623.665 100.814 622.777 100.814 622.777 100.256 626.542 100.256 626.542 100.814 625.152 100.814 627.778 104.801 630.211 100.814 628.821 100.814 628.821 100.256 631.871 100.256 631.871 100.814 631.08 100.814 628.145 105.571 628.145 109.731 629.303 109.731 629.303 110.289Z" fill="#FFFFFF"/><path d="M635.791 105.301C635.791 102.451 638.011 100.082 640.714 100.082 643.36 100.082 645.599 102.451 645.599 105.282 645.599 108.113 643.379 110.501 640.714 110.501 638.05 110.501 635.791 108.132 635.791 105.301ZM637.316 105.282C637.316 107.843 638.745 109.712 640.734 109.712 642.684 109.712 644.113 107.843 644.113 105.282 644.113 102.721 642.703 100.872 640.753 100.872 638.745 100.872 637.316 102.701 637.316 105.282Z" fill="#FFFFFF"/><path d="M650.176 110.289 646.546 110.289 646.546 109.73 647.685 109.73 647.685 100.833 646.546 100.833 646.546 100.274 652.628 100.274 652.628 99.8507 653.323 99.8507 653.323 102.258 652.628 102.258 652.628 100.968 649.017 100.968 649.017 104.858 651.894 104.858 651.894 103.722 652.59 103.702 652.59 106.688 651.894 106.707 651.894 105.532 649.017 105.532 649.017 109.73 650.157 109.73 650.157 110.289 650.176 110.289Z" fill="#FFFFFF"/><path d="M513.644 142.779 511.752 142.779 511.752 135.576 513.644 135.576 513.644 138.734C516.096 140.391 517.177 140.776 518.954 140.776 522.178 140.776 524.341 139.1 524.341 136.577 524.341 134.286 522.777 132.61 518.432 130.357 513.373 127.718 511.636 125.696 511.636 122.403 511.636 118.436 515.015 115.47 519.552 115.47 521.56 115.47 523.047 115.836 524.341 116.587L524.341 115.162 526.195 115.162 526.195 122.018 524.341 122.018 524.341 119.168C522.294 117.8 521.29 117.396 519.688 117.396 516.946 117.396 515.188 119.033 515.188 121.517 515.188 123.559 516.347 124.733 521.367 127.622 526.388 130.511 527.836 132.264 527.836 135.557 527.836 139.716 524.379 142.933 519.842 142.933 517.312 142.933 515.671 142.413 513.663 141.122L513.663 142.779 513.644 142.779Z" fill="#FFFFFF"/><path d="M545.754 142.432 536.197 142.432 536.197 140.949 539.209 140.949 539.209 130.241 530.887 117.434 528.55 117.434 528.55 115.951 538.475 115.951 538.475 117.434 534.826 117.434 541.738 127.95 548.129 117.434 544.48 117.434 544.48 115.951 552.512 115.951 552.512 117.434 550.427 117.434 542.704 129.991 542.704 140.93 545.754 140.93 545.754 142.432Z" fill="#FFFFFF"/><path d="M554.501 142.432 554.501 140.949 557.513 140.949 557.513 117.434 554.501 117.434 554.501 115.951 566.357 115.951C573.597 115.951 579.486 121.883 579.486 129.163 579.486 136.577 573.694 142.432 566.299 142.432L554.501 142.432ZM561.047 140.429 565.874 140.429C571.377 140.429 575.567 135.576 575.509 129.201 575.509 123 571.242 117.993 565.951 117.993L561.047 117.993 561.047 140.429Z" fill="#FFFFFF"/><path d="M602.676 142.875 601.441 142.875 586.013 121.69 586.013 140.949 589.064 140.949 589.064 142.432 580.954 142.432 580.954 140.949 584.005 140.949 584.005 118.956 582.924 117.434 580.143 117.434 580.143 115.951 585.955 115.951 600.668 136.096 600.668 117.434 597.617 117.434 597.617 115.951 605.689 115.951 605.689 117.434 602.676 117.434 602.676 142.875Z" fill="#FFFFFF"/><path d="M626.697 142.432 608.411 142.432 608.411 140.949 611.443 140.949 611.443 117.434 608.43 117.434 608.43 115.951 624.457 115.951 624.457 114.835 626.31 114.835 626.31 121.209 624.495 121.209 624.495 117.8 614.976 117.8 614.976 128.084 622.564 128.084 622.564 125.08 624.418 125.042 624.418 132.938 622.564 132.976 622.564 129.895 614.976 129.895 614.976 140.641 624.862 140.641 624.862 137.117 626.716 137.117 626.716 142.432 626.697 142.432Z" fill="#FFFFFF"/><path d="M646.585 142.432 637.027 142.432 637.027 140.949 640.039 140.949 640.039 130.241 631.717 117.434 629.4 117.434 629.4 115.951 639.325 115.951 639.325 117.434 635.675 117.434 642.588 127.95 648.979 117.434 645.33 117.434 645.33 115.951 653.362 115.951 653.362 117.434 651.277 117.434 643.553 129.991 643.553 140.93 646.604 140.93 646.604 142.432 646.585 142.432Z" fill="#FFFFFF"/><path d="M461.356 134.998 467.284 134.998 467.284 134.093 461.356 134.093 461.356 134.998ZM461.356 137.444 467.284 137.444 467.284 136.558 461.356 136.558 461.356 137.444ZM461.356 132.552 467.284 132.552 467.284 131.647 461.356 131.647 461.356 132.552ZM457.089 134.093 451.161 134.093 451.161 134.998 457.089 134.998 457.089 134.093ZM457.089 136.558 451.161 136.558 451.161 137.444 457.089 137.444 457.089 136.558ZM457.089 131.647 451.161 131.647 451.161 132.552 457.089 132.552 457.089 131.647ZM466.511 115.951C464.098 115.836 461.645 115.759 459.232 115.759 456.818 115.759 454.366 115.836 451.952 115.951L451.952 127.892 429.033 127.892C429.979 133.631 432.335 138.985 435.694 143.453 436.139 142.817 436.892 142.393 437.741 142.393L451.952 142.393 451.952 154.834C454.27 155.47 456.702 155.817 459.212 155.817L459.212 155.913 459.232 155.913 459.232 155.817C461.742 155.817 464.175 155.47 466.511 154.815L466.511 142.393 480.742 142.393C481.572 142.393 482.325 142.798 482.769 143.433 486.129 138.965 488.465 133.592 489.431 127.872L466.511 127.872 466.511 115.951ZM455.022 119.668 458.112 121.132 459.212 117.916 460.371 121.132 463.422 119.649 461.954 122.73 465.179 123.828 461.954 124.984 463.441 128.027 460.332 126.563 459.232 129.76 458.073 126.544 455.022 128.027 456.49 124.926 453.265 123.828 456.509 122.673 455.022 119.668ZM444.19 139.408 441.139 137.925 439.981 141.142 438.88 137.945 435.772 139.408 437.278 136.365 434.034 135.21 437.258 134.112 435.791 131.012 438.823 132.495 439.981 129.278 441.082 132.475 444.19 131.012 442.703 134.054 445.928 135.21 442.703 136.308 444.19 139.408ZM449.095 139.177 447.743 139.177 447.743 138.195 449.095 138.195 449.095 139.177ZM449.095 136.539 447.743 136.539 447.743 135.557 449.095 135.557 449.095 136.539ZM449.095 133.9 447.743 133.9 447.743 132.918 449.095 132.918 449.095 133.9ZM449.095 131.281 447.743 131.281 447.743 130.299 449.095 130.299 449.095 131.281ZM449.828 139.177 449.828 129.683 455.814 129.683C455.93 129.663 456.065 129.683 456.181 129.683 457.552 129.683 458.614 130.742 458.614 132.071L458.614 140.025C458.17 139.505 457.494 139.158 456.741 139.158 456.644 139.177 451.701 139.177 449.828 139.177ZM463.441 151.56 460.332 150.097 459.232 153.313 458.073 150.077 455.022 151.56 456.49 148.46 453.265 147.362 456.49 146.207 455.003 143.164 458.112 144.627 459.212 141.43 460.371 144.647 463.422 143.164 461.954 146.264 465.179 147.362 461.954 148.518 463.441 151.56ZM474.254 131.012 477.363 132.475 478.463 129.278 479.622 132.495 482.673 131.012 481.205 134.112 484.43 135.21 481.186 136.365 482.673 139.408 479.564 137.945 478.463 141.142 477.305 137.925 474.254 139.408 475.721 136.308 472.497 135.21 475.721 134.054 474.254 131.012ZM469.35 130.28 470.701 130.28 470.701 131.262 469.35 131.262 469.35 130.28ZM469.35 132.918 470.701 132.918 470.701 133.9 469.35 133.9 469.35 132.918ZM469.35 135.557 470.701 135.557 470.701 136.539 469.35 136.539 469.35 135.557ZM469.35 138.195 470.701 138.195 470.701 139.177 469.35 139.177 469.35 138.195ZM468.635 129.683 468.635 139.177C466.762 139.177 461.8 139.177 461.703 139.177 460.95 139.177 460.294 139.505 459.83 140.044L459.83 132.09C459.83 130.742 460.892 129.702 462.263 129.702 462.379 129.702 462.514 129.683 462.63 129.702L468.635 129.702 468.635 129.683ZM480.452 89.182C474.544 87.9302 466.743 86.6976 459.232 86.6976 447.956 86.6976 436.042 89.4901 430.809 90.896 429.767 91.1656 428.994 91.3967 428.531 91.5315L428.531 117.107C431.929 116.568 445.928 114.449 459.212 114.43 472.497 114.43 486.496 116.548 489.894 117.107L489.894 91.5315C489.431 91.3967 488.658 91.1849 487.616 90.896 485.897 90.4338 483.406 89.8175 480.452 89.182ZM448.4 91.8782C448.863 91.7626 447.859 91.0116 448.515 91.0501 448.94 91.0693 450.35 91.0693 451.412 91.5893 451.605 91.6664 451.74 91.3004 452.146 91.0308 452.184 91.0116 452.281 90.973 452.339 91.0308 452.763 91.2812 452.898 91.6664 453.111 91.5701 454.173 91.0693 455.563 91.0693 455.969 91.0308 456.644 90.9923 455.621 91.7626 456.085 91.8589 458.479 92.4367 460.255 94.4588 460.255 96.8662 460.255 97.5595 460.081 98.2143 459.85 98.8305 459.715 99.1579 459.386 98.2335 459.251 98.7727 459.019 99.7549 458.768 100.487 458.247 101.469 457.745 102.393 456.934 100.467 456.683 101.007 456.22 101.97 455.138 102.316 454.385 102.432 454.289 102.432 454.211 102.432 454.327 102.336 454.366 102.297 454.559 102.124 454.598 101.777 454.598 101.739 454.578 101.681 454.656 101.642 455.235 101.373 455.66 100.833 455.776 100.198 455.949 99.6009 456.2 98.7535 456.49 98.2335 457.146 97.078 456.355 95.6914 456.548 95.3832 456.992 95.0944 457.282 94.5936 457.282 94.0159 457.282 93.1107 456.548 92.3789 455.64 92.3789 455.158 92.3789 454.714 92.5908 454.424 92.9374L454.385 92.9759C454.231 93.13 454.096 93.3033 453.961 93.4767 453.806 93.6692 453.845 94.0159 454.096 94.0737 455.216 94.3625 455.93 96.8662 455.486 97.675 455.293 98.0409 454.675 99.389 454.675 99.7742 454.675 100.275 454.27 100.679 453.767 100.679 453.381 100.679 453.053 100.448 452.918 100.082L452.937 100.044C453.246 99.8512 453.922 99.4468 453.922 99.0231L453.787 97.6558C454.347 97.598 454.598 97.2898 454.675 96.7699 454.733 96.7313 454.771 96.6928 454.81 96.6543 455.003 96.481 455.119 96.0188 454.714 96.0958 454.154 96.1921 453.516 96.1728 452.879 96.3462 452.802 96.3654 452.744 96.4425 452.725 96.5195 452.705 96.6351 453.053 98.2913 453.15 98.6572 453.15 98.6957 453.13 98.715 453.111 98.715 452.86 98.6957 452.416 98.6765 452.3 98.6765 452.184 98.6765 451.759 98.6957 451.489 98.715 451.47 98.715 451.431 98.6765 451.431 98.6572 451.508 98.272 451.875 96.6158 451.875 96.6158 451.875 96.5388 451.875 96.481 451.837 96.4232 451.721 96.2691 450.099 96.1343 449.886 96.0958 449.79 96.0766 449.693 96.1151 449.635 96.1921 449.481 96.4232 449.751 96.6736 449.944 96.7699 450.021 97.2706 450.272 97.5787 450.813 97.6365L450.832 97.6558C450.813 97.752 450.678 99.0231 450.678 99.0231 450.678 99.4661 451.354 99.832 451.682 100.025 451.701 100.044 451.721 100.082 451.721 100.102 451.566 100.41 451.238 100.641 450.89 100.641 450.388 100.641 449.983 100.236 449.983 99.7357 449.983 99.4083 449.384 98.0024 449.153 97.6172 448.67 96.7891 449.384 94.324 450.543 94.0351 450.794 93.9774 450.929 93.6115 450.736 93.4189 450.253 92.9374 449.693 92.3404 448.96 92.3404 448.052 92.3404 447.338 93.0722 447.338 93.9774 447.338 95.0173 448.129 95.1714 448.071 95.4603 447.743 96.4232 447.743 97.4632 448.168 98.195 448.457 98.6957 448.689 99.5238 448.882 100.102 448.998 100.699 449.346 101.219 449.867 101.507 450.118 101.661 450.002 101.854 450.099 102.066 450.157 102.162 450.234 102.239 450.292 102.297 450.408 102.374 450.311 102.393 450.234 102.393 449.481 102.297 448.303 101.97 447.82 100.949 447.569 100.41 446.739 102.336 446.256 101.411 445.735 100.429 445.503 99.6972 445.252 98.715 445.117 98.1757 444.789 99.1001 444.654 98.7727 444.422 98.1565 444.248 97.5209 444.248 96.8084 444.248 94.4588 446.025 92.4367 448.4 91.8782ZM455.216 93.5537C455.196 93.5344 455.196 93.4381 455.235 93.4189 455.351 93.3226 455.505 93.2841 455.66 93.2841 456.065 93.2841 456.393 93.6115 456.393 94.0159 456.393 94.247 456.297 94.4396 456.123 94.5744 456.085 94.6129 456.007 94.5744 455.988 94.5359 455.776 94.1507 455.525 93.8233 455.216 93.5537ZM453.574 101.758C453.401 102.22 452.744 102.066 452.396 102.355 452.358 102.393 452.261 102.393 452.223 102.355 451.875 102.066 451.238 102.201 451.026 101.7 451.006 101.661 451.006 101.585 451.103 101.565 451.566 101.507 451.972 101.296 452.261 100.968 452.281 100.93 452.358 100.91 452.435 100.988 452.705 101.276 453.072 101.507 453.497 101.565 453.536 101.585 453.613 101.623 453.574 101.758ZM448.651 94.5551C448.631 94.5744 448.554 94.6129 448.496 94.5551 448.342 94.4203 448.226 94.2085 448.226 93.9774 448.226 93.5729 448.554 93.2455 448.96 93.2455 449.153 93.2455 449.326 93.3226 449.462 93.4381 449.52 93.4766 449.481 93.5729 449.462 93.5922 449.153 93.9003 448.882 94.2085 448.651 94.5551ZM442.202 103.934C441.699 103.934 441.506 104.088 441.139 104.319 440.908 104.473 440.85 104.03 441.12 103.125 441.333 102.413 439.923 102.027 439.595 102.355 439.112 102.721 437.915 103.453 436.718 102.201 436.486 101.95 437.258 102.027 437.297 101.816 437.374 101.488 437.664 101.296 437.78 101.18 437.857 101.084 437.857 100.93 437.722 100.872 437.355 100.679 436.853 100.256 436.988 99.4853 437.007 99.3698 436.37 99.3312 436.583 99.1387 437.703 98.118 438.919 98.7535 439.402 99.0809 439.479 99.1194 439.653 99.1194 439.672 98.9653 439.711 98.6379 439.537 98.4068 440.213 97.8676 440.348 97.752 439.827 97.3091 440.193 97.3284 442.491 97.9061 441.448 100.294 441.931 100.718 442.819 101.507 444.943 102.124 446.932 102.547 447.106 102.586 447.724 102.798 447.859 102.875 449.481 103.703 450.466 103.626 451.335 103.279 451.605 103.164 451.605 103.53 451.508 103.607 448.303 106.669 445.851 105.879 445.001 105.34 444.403 104.955 443.167 104.936 442.607 105.725 442.51 105.821 442.337 105.879 442.259 105.629 442.086 105.051 442.279 104.666 442.453 104.242 442.568 103.992 442.298 103.934 442.202 103.934ZM472.786 106.765C472.362 107.131 471.589 107.555 470.373 107.497 469.852 107.478 469.601 107.632 469.485 107.767 469.408 107.863 469.369 107.998 469.35 108.017 469.272 108.267 469.369 108.537 469.504 108.749 469.639 108.941 469.581 109.057 469.388 109.095 469.195 109.153 468.925 109.153 468.403 108.903 468.172 108.787 468.114 108.941 468.075 109.038 467.979 109.288 468.152 109.596 468.5 109.827 468.674 109.981 468.635 110.135 468.365 110.232 467.901 110.386 467.496 110.174 466.82 109.808 466.434 109.596 466.125 109.558 465.855 109.866 465.7 110.039 465.72 110.193 465.797 110.289 466.067 110.54 466.222 111.06 465.565 111.888 465.353 112.157 465.121 111.406 464.909 111.503 464.02 111.926 463.287 111.368 462.997 111.002 462.939 110.925 462.804 110.906 462.649 111.002 462.205 111.31 461.24 111.792 460.873 110.925 460.815 110.79 460.294 111.118 460.294 110.867 460.313 109.442 461.549 109.172 462.09 109.134 462.244 109.115 462.283 109.038 462.205 108.903 461.993 108.595 461.742 108.229 461.877 107.805 461.974 107.497 461.163 107.42 461.491 107.246 463.132 106.438 464.04 107.998 464.329 108.152 464.812 108.421 466.936 107.728 467.206 106.573 467.264 106.341 466.704 106.245 466.164 106.11 466.067 106.091 466.009 105.956 466.183 105.821 467.477 104.858 468.519 103.607 470.856 103.376 471.145 103.337 471.261 103.587 471.261 103.703 471.3 104.069 471.396 104.415 471.551 104.743 471.898 105.455 472.304 105.898 472.709 106.226 472.941 106.457 472.902 106.669 472.786 106.765ZM482.595 106.033C482.808 106.149 482.808 106.264 482.653 106.399 482.499 106.534 482.248 106.669 481.688 106.669 481.437 106.669 481.437 106.823 481.456 106.938 481.495 107.208 481.784 107.401 482.19 107.458 482.402 107.516 482.46 107.67 482.248 107.863 481.9 108.209 481.456 108.209 480.684 108.19 479.95 108.171 479.371 109.038 479.796 109.404 480.085 109.654 480.664 110.193 480.163 111.695 480.008 112.138 479.718 111.291 479.487 111.426 478.888 111.792 478.347 111.329 478.077 111.002 477.961 110.867 477.845 110.867 477.768 111.002 477.517 111.426 476.88 112.157 475.606 111.464 475.335 111.31 474.756 111.83 474.717 111.657 474.505 110.655 475.026 110.077 475.451 109.769 475.49 109.731 475.664 109.5 475.374 109.519 474.949 109.5 474.409 109.365 474.35 108.826 474.35 108.71 473.791 108.749 473.829 108.595 473.964 107.863 475.567 107.324 476.687 108.075 477.633 108.691 478.811 106.573 477.961 105.59 477.343 104.878 473.752 106.881 472.535 104.281 472.053 103.241 472.651 102.355 472.169 102.278 471.667 102.201 469.408 101.719 466.897 103.722 462.669 107.112 458.073 105.263 456.992 104.512 456.818 104.454 456.664 104.589 456.722 104.762 456.895 105.205 456.818 105.609 456.606 105.918 456.162 106.592 454.636 107.266 454.366 107.343 452.59 107.863 452.763 109.23 452.957 109.827 453.014 110.02 452.937 110.116 452.744 110.097 452.203 110.001 451.103 109.654 450.659 108.595 450.62 108.479 450.485 108.46 450.331 108.575 449.674 109.038 449.906 109.731 450.06 110.039 450.118 110.155 450.079 110.27 449.925 110.289 449.326 110.366 448.882 109.654 448.361 109.712 448.013 109.75 447.627 110.001 447.396 110.155 447.299 110.212 447.28 110.386 447.338 110.598 447.994 112.562 446.913 112.639 446.836 112.6 446.758 112.562 446.797 112.234 446.488 112.177 445.407 112.234 445.117 111.541 445.059 111.021 445.04 110.848 444.963 110.79 444.866 110.867 444.461 111.156 443.457 111.695 442.819 110.886 442.723 110.771 442.433 110.886 442.259 110.963 442.124 111.021 442.124 110.809 442.124 110.732 442.202 109.615 442.954 109.095 443.379 108.903 443.534 108.826 443.553 108.749 443.418 108.652 443.07 108.402 442.472 107.863 442.665 107.266 442.703 107.15 442.163 106.938 442.298 106.842 443.534 105.956 445.117 107.42 445.31 107.593 445.523 107.767 446.642 107.805 449.5 106.187 451.315 105.167 452.261 104.319 452.783 103.684 452.841 103.607 452.976 103.472 453.169 103.472 454.327 103.433 455.467 103.26 456.355 102.49 456.509 102.336 456.644 102.432 456.722 102.47 458.363 103.607 459.193 101.103 459.541 99.9475 459.579 99.7164 459.637 99.5238 459.888 99.5046 465.913 99.7935 477.324 99.7549 477.324 99.7549 477.324 99.7549 478.83 99.8705 478.753 98.9461 478.637 97.4439 472.4 97.4824 467.766 98.118 466.086 98.3491 463.634 98.4839 462.186 97.9254 461.587 97.6943 461.105 97.3284 460.834 96.8469 460.545 96.2306 460.622 95.8647 460.68 95.4795 460.757 95.2099 460.892 94.9018 461.085 94.5936 462.283 92.7641 465.024 92.61 465.893 92.61 466.048 92.61 466.164 92.533 466.183 92.4174 466.26 91.9937 466.588 91.0116 467.747 90.9538 468.075 90.9345 468.403 90.819 468.616 90.7227 468.751 90.6649 468.848 90.7034 468.809 90.819 468.77 90.973 468.712 91.1656 468.539 91.3197 467.728 92.013 467.844 92.3404 467.94 92.4174 467.998 92.4559 468.075 92.4367 468.133 92.3789 470.585 90.2412 472.014 91.6664 472.458 92.1285 472.535 92.2056 472.555 92.3404 472.4 92.3789 470.74 92.7448 470.083 94.2277 466.685 93.9966 466.28 93.9774 463.48 93.8233 462.591 95.0944 462.09 95.8262 462.437 96.5002 463.943 96.8469 465.082 97.0973 467.747 96.7121 469.002 96.6158 470.238 96.5195 475.586 95.8455 478.405 96.6543 479.583 97.001 481.321 97.9446 480.973 99.7357 480.742 100.872 479.66 101.315 479.66 101.315 479.66 101.315 476.571 103.472 482.113 103.51 483.831 103.51 482.132 104.936 482.055 105.34 482.055 105.609 482.325 105.879 482.595 106.033ZM472.439 94.0737C472.265 94.1122 472.034 94.17 471.763 94.3433 471.261 94.6707 469.253 95.4988 468.635 94.5166 468.635 94.5166 470.045 94.4781 470.952 93.6692 470.952 93.6692 471.937 93.3418 472.516 93.8618 472.593 93.9003 472.593 94.0351 472.439 94.0737ZM459.232 83C440.387 83 421.638 88.0072 421.638 88.0072L421.638 113.005C421.638 135.537 437.818 158.956 459.232 163 481.437 158.667 496.845 135.518 496.845 113.005L496.845 88.0072C496.826 88.0072 481.109 83 459.232 83ZM491.246 122.133C491.246 140.487 477.266 157.126 459.232 157.145L459.212 157.145C441.178 157.126 427.199 140.467 427.199 122.133 427.199 100.583 427.199 90.5493 427.199 90.5493L427.662 90.4145C427.701 90.4145 443.901 85.3881 459.212 85.3881 474.524 85.3881 490.763 90.4145 490.763 90.4145L491.226 90.5493C491.246 90.5493 491.246 100.583 491.246 122.133Z" fill="#FFFFFF"/></g></svg>