<svg width="233" height="80" viewBox="0 0 233 80" fill="none" xmlns="http://www.w3.org/2000/svg">
    <path d="M97.3937 27.2893H93.0106V26.7308H94.536V18.0259H91.4852V19.2392H90.7515V16.8319H91.4852V17.2556H98.9191V16.8319H99.6528V19.2392H98.9191V18.0259H95.8683V26.7308H97.3937V27.2893Z" fill="#ffffff"/>
    <path d="M111.258 27.2893H107.628V26.7308H108.767V22.5517H103.051V26.7308H104.191V27.2893H100.561V26.7308H101.7V17.8334H100.561V17.2749H104.191V17.8334H103.051V21.8777H108.767V17.8334H107.628V17.2749H111.258V17.8334H110.099V26.7501H111.258V27.2893Z" fill="#ffffff"/>
    <path d="M119.464 27.2888H112.532V26.7303H113.671V17.8329H112.532V17.2744H118.614V16.8507H119.309V19.258H118.614V17.9677H115.003V21.8579H117.88V20.7217L118.575 20.7024V23.6875L117.88 23.7067V22.532H115.003V26.6148H118.749V25.2859H119.444V27.2888H119.464Z" fill="#ffffff"/>
    <path d="M134.524 17.8334H133.385V23.6302C133.385 25.2479 132.806 26.3072 131.531 27.0005C130.894 27.3279 130.161 27.5205 129.407 27.5205C127.206 27.5205 125.565 26.0568 125.565 24.0732V17.8334H124.426V17.2749H128.056V17.8334H126.917V23.5917C126.917 25.4405 127.998 26.6346 129.697 26.6346C131.435 26.6346 132.613 25.402 132.613 23.5725V17.8334H131.473V17.2749H134.544V17.8334H134.524Z" fill="#ffffff"/>
    <path d="M143.928 27.4627H143.445L137.595 19.4319V26.7308H138.753V27.2893H135.664V26.7308H136.822V18.4112L136.417 17.8334H135.374V17.2749H137.595L143.175 24.9013V17.8334H142.016V17.2749H145.086V17.8334H143.947V27.4627H143.928Z" fill="#ffffff"/>
    <path d="M149.817 27.2893H146.187V26.7308H147.326V17.8334H146.187V17.2749H149.817V17.8334H148.678V26.7501H149.817V27.2893Z" fill="#ffffff"/>
    <path d="M155.976 27.559H155.455L151.613 17.8334H150.705V17.2749H154.49V17.8334H153.061L156.015 25.3057L158.95 17.8334H157.946V17.2749H160.553V17.8334H159.799L155.976 27.559Z" fill="#ffffff"/>
    <path d="M168.411 27.2888H161.479V26.7303H162.619V17.8329H161.479V17.2744H167.562V16.8507H168.257V19.258H167.562V17.9677H163.951V21.8579H166.828V20.7217L167.523 20.7024V23.6875L166.828 23.7067V22.532H163.951V26.6148H167.697V25.2859H168.392V27.2888H168.411Z" fill="#ffffff"/>
    <path d="M178.683 27.2893H177.39C176.482 27.2893 176.328 27.1931 175.826 26.3842L173.547 22.7828H172.35V26.7308H173.489V27.2893H169.859V26.7308H170.999V17.8334H169.859V17.2749H174.107C175.594 17.2749 176.424 17.6793 176.888 18.623C177.081 19.0274 177.197 19.4896 177.197 19.9711C177.197 21.454 176.366 22.3977 174.918 22.6095L177.119 25.9798C177.486 26.5383 177.737 26.7308 178.104 26.7308H178.703V27.2893H178.683ZM172.35 22.0895H173.818C174.976 22.0895 175.787 21.2422 175.787 19.9904C175.787 18.6808 175.073 17.949 173.798 17.949H172.37V22.0895H172.35Z" fill="#ffffff"/>
    <path d="M180.633 27.4434H179.919V24.7087H180.633V25.9027C181.56 26.519 181.966 26.6731 182.642 26.6731C183.858 26.6731 184.688 26.0375 184.688 25.0746C184.688 24.208 184.09 23.5724 182.448 22.7251C180.518 21.7236 179.88 20.9533 179.88 19.7207C179.88 18.2186 181.155 17.0823 182.893 17.0823C183.646 17.0823 184.225 17.2171 184.708 17.506V16.9475H185.403V19.5474H184.708V18.4689C183.935 17.949 183.549 17.7949 182.931 17.7949C181.888 17.7949 181.232 18.4112 181.232 19.3548C181.232 20.1252 181.676 20.5681 183.588 21.6659C185.499 22.7636 186.04 23.4376 186.04 24.6702C186.04 26.2494 184.727 27.4627 183.008 27.4627C182.043 27.4627 181.425 27.2701 180.653 26.7694V27.4434H180.633Z" fill="#ffffff"/>
    <path d="M191.041 27.2893H187.411V26.7308H188.55V17.8334H187.411V17.2749H191.041V17.8334H189.902V26.7501H191.041V27.2893Z" fill="#ffffff"/>
    <path d="M198.668 27.2893H194.285V26.7308H195.81V18.0259H192.76V19.2392H192.026V16.8319H192.76V17.2556H200.193V16.8319H200.927V19.2392H200.193V18.0259H197.143V26.7308H198.668V27.2893Z" fill="#ffffff"/>
    <path d="M208.303 27.2893H204.673V26.7308H205.812V22.6673L202.665 17.8141H201.777V17.2556H205.542V17.8141H204.152L206.778 21.8006L209.211 17.8141H207.821V17.2556H210.871V17.8141H210.08L207.145 22.571V26.7308H208.303V27.2893Z" fill="#ffffff"/>
    <path d="M214.791 22.3013C214.791 19.4511 217.011 17.0823 219.714 17.0823C222.36 17.0823 224.599 19.4511 224.599 22.2821C224.599 25.1131 222.379 27.5012 219.714 27.5012C217.05 27.5012 214.791 25.1323 214.791 22.3013ZM216.316 22.2821C216.316 24.8435 217.745 26.7115 219.734 26.7115C221.684 26.7115 223.113 24.8435 223.113 22.2821C223.113 19.7207 221.703 17.8719 219.753 17.8719C217.745 17.8719 216.316 19.7014 216.316 22.2821Z" fill="#ffffff"/>
    <path d="M229.176 27.2888H225.546V26.7303H226.685V17.8329H225.546V17.2744H231.628V16.8507H232.323V19.258H231.628V17.9677H228.017V21.8579H230.894V20.7217L231.59 20.7024V23.6875L230.894 23.7067V22.532H228.017V26.7303H229.157V27.2888H229.176Z" fill="#ffffff"/>
    <path d="M92.6438 59.7786H90.7516V52.5759H92.6438V55.7343C95.0961 57.3906 96.1773 57.7757 97.9537 57.7757C101.178 57.7757 103.341 56.1002 103.341 53.5774C103.341 51.2856 101.777 49.6101 97.4324 47.3569C92.3735 44.7184 90.6357 42.6963 90.6357 39.4031C90.6357 35.4358 94.0148 32.47 98.5523 32.47C100.56 32.47 102.047 32.8359 103.341 33.587V32.1619H105.195V39.0179H103.341V36.1676C101.294 34.8003 100.29 34.3959 98.6875 34.3959C95.9456 34.3959 94.1885 36.0328 94.1885 38.5172C94.1885 40.5586 95.3471 41.7334 100.367 44.6221C105.388 47.5109 106.836 49.2635 106.836 52.5567C106.836 56.7165 103.379 59.9327 98.8419 59.9327C96.3125 59.9327 94.6713 59.4127 92.6632 58.1224V59.7786H92.6438Z" fill="#ffffff"/>
    <path d="M124.754 59.4319H115.197V57.949H118.209V47.2413L109.887 34.4343H107.55V32.9514H117.475V34.4343H113.826L120.738 44.9495L127.129 34.4343H123.48V32.9514H131.512V34.4343H129.427L121.704 46.9909V57.9297H124.754V59.4319Z" fill="#ffffff"/>
    <path d="M133.501 59.4319V57.949H136.513V34.4343H133.501V32.9514H145.357C152.597 32.9514 158.486 38.883 158.486 46.1628C158.486 53.5773 152.694 59.4319 145.299 59.4319H133.501ZM140.047 57.429H144.874C150.377 57.429 154.567 52.5759 154.509 46.2013C154.509 40 150.242 34.9928 144.951 34.9928H140.047V57.429Z" fill="#ffffff"/>
    <path d="M181.676 59.8749H180.441L165.013 38.6905V57.949H168.064V59.4319H159.954V57.949H163.005V35.9557L161.924 34.4343H159.143V32.9514H164.955L179.668 53.0959V34.4343H176.617V32.9514H184.689V34.4343H181.676V59.8749Z" fill="#ffffff"/>
    <path d="M205.697 59.432H187.411V57.9491H190.443V34.4344H187.43V32.9515H203.457V31.8345H205.31V38.2091H203.495V34.8003H193.976V45.0844H201.564V42.08L203.418 42.0415V49.9375L201.564 49.976V46.8947H193.976V57.6409H203.862V54.1166H205.716V59.432H205.697Z" fill="#ffffff"/>
    <path d="M225.585 59.4319H216.027V57.949H219.039V47.2413L210.717 34.4343H208.4V32.9514H218.325V34.4343H214.675L221.588 44.9495L227.979 34.4343H224.33V32.9514H232.362V34.4343H230.277L222.553 46.9909V57.9297H225.604V59.4319H225.585Z" fill="#ffffff"/>
</svg>